<svg xmlns="http://www.w3.org/2000/svg" width="96" height="96" fill="none"><rect width="4.91" height="80.253" fill="#CA8A04" rx="2.455"/><rect width="4.91" height="87.275" x="8.242" fill="#CA8A04" rx="2.455"/><rect width="4.91" height="95.3" x="16.483" fill="#CA8A04" rx="2.455"/><rect width="4.91" height="95.3" x="24.725" fill="#CA8A04" rx="2.455"/><rect width="4.91" height="34.107" x="32.967" fill="#CA8A04" rx="2.455"/><rect width="4.91" height="34.107" x="41.209" fill="#CA8A04" rx="2.455"/><rect width="4.91" height="41.129" x="49.45" fill="#CA8A04" rx="2.455"/><rect width="4.91" height="48.151" x="57.692" fill="#CA8A04" rx="2.455"/><rect width="4.91" height="34.107" x="65.933" fill="#CA8A04" rx="2.455"/><rect width="5" height="25" x="74" y="9" fill="#CA8A04" rx="2.5"/><rect width="4.91" height="80.253" x="82.417" y="15.316" fill="#CA8A04" rx="2.455"/><rect width="4.91" height="73.231" x="90.659" y="22.123" fill="#CA8A04" rx="2.455"/><rect width="4.998" height="15.316" x="33.318" y="79.984" fill="#CA8A04" rx="2.499"/><rect width="4.91" height="15.047" x="41.647" y="79.984" fill="#CA8A04" rx="2.455"/><rect width="4.998" height="30.632" x="49.976" y="64.668" fill="#CA8A04" rx="2.499"/><rect width="4.998" height="23.825" x="58.306" y="71.475" fill="#CA8A04" rx="2.499"/><rect width="4.998" height="15.316" x="66.285" y="79.984" fill="#CA8A04" rx="2.499"/><rect width="4.998" height="15.316" x="74.614" y="79.984" fill="#CA8A04" rx="2.499"/></svg>